<svg width="22" height="25" viewBox="0 0 22 25" fill="none" xmlns="http://www.w3.org/2000/svg">
<path d="M0.43489 0.879726C0.132742 1.24303 -0.0214285 1.71004 0.00394316 2.18515V22.8109C-0.0272555 23.2868 0.127629 23.756 0.43489 24.1163L0.499074 24.1909L11.8595 12.6379V12.3582L0.499074 0.814453L0.43489 0.879726Z" fill="url(#paint0_linear_660_31183)"/>
<path d="M15.6153 16.4896L11.856 12.6386V12.3588L15.6153 8.50781L15.6978 8.56376L20.1998 11.156C21.4835 11.8926 21.4835 13.1048 20.1998 13.8507L15.7161 16.4429L15.6153 16.4896Z" fill="url(#paint1_linear_660_31183)"/>
<path d="M15.7295 16.4349L11.8602 12.5L0.435547 24.1183C0.694641 24.3528 1.02628 24.4878 1.37295 24.4997C1.71962 24.5116 2.05946 24.3998 2.33354 24.1836L15.7295 16.4349Z" fill="url(#paint2_linear_660_31183)"/>
<path d="M15.7295 8.56347L2.33354 0.82416C2.06124 0.604955 1.72167 0.490398 1.37453 0.500631C1.02738 0.510863 0.694903 0.645232 0.435547 0.880108L11.8602 12.4984L15.7295 8.56347Z" fill="url(#paint3_linear_660_31183)"/>
<path opacity="0.2" d="M15.6195 16.3477L2.33354 24.0403C2.06942 24.2431 1.74754 24.3527 1.41664 24.3527C1.08574 24.3527 0.76385 24.2431 0.49973 24.0403L0.435547 24.1056L0.49973 24.1802C0.76385 24.3829 1.08574 24.4926 1.41664 24.4926C1.74754 24.4926 2.06942 24.3829 2.33354 24.1802L15.7295 16.4316L15.6195 16.3477Z" fill="black"/>
<path opacity="0.12" d="M20.2012 13.7122L15.6167 16.351L15.6992 16.4349L20.2012 13.8427C20.467 13.7285 20.6975 13.5434 20.8685 13.3071C21.0396 13.0708 21.1448 12.792 21.1732 12.5C21.1158 12.7653 20.998 13.0133 20.8292 13.2238C20.6604 13.4344 20.4453 13.6017 20.2012 13.7122Z" fill="black"/>
<path opacity="0.25" d="M2.32894 0.955696L20.1994 11.2872C20.4435 11.3977 20.6586 11.565 20.8274 11.7756C20.9962 11.9861 21.114 12.2341 21.1714 12.4994C21.143 12.2074 21.0378 11.9286 20.8668 11.6923C20.6957 11.456 20.4652 11.2709 20.1994 11.1567L2.32894 0.825152C1.05444 0.0791938 0 0.69461 0 2.18653V2.32639C0.0275072 0.834477 1.05444 0.219062 2.32894 0.955696Z" fill="white"/>
<defs>
<linearGradient id="paint0_linear_660_31183" x1="10.8509" y1="1.97069" x2="-4.79331" y2="17.3542" gradientUnits="userSpaceOnUse">
<stop stop-color="#00A0FF"/>
<stop offset="0.01" stop-color="#00A1FF"/>
<stop offset="0.26" stop-color="#00BEFF"/>
<stop offset="0.51" stop-color="#00D2FF"/>
<stop offset="0.76" stop-color="#00DFFF"/>
<stop offset="1" stop-color="#00E3FF"/>
</linearGradient>
<linearGradient id="paint1_linear_660_31183" x1="21.8777" y1="12.4987" x2="-0.302214" y2="12.4987" gradientUnits="userSpaceOnUse">
<stop stop-color="#FFE000"/>
<stop offset="0.41" stop-color="#FFBD00"/>
<stop offset="0.78" stop-color="#FFA500"/>
<stop offset="1" stop-color="#FF9C00"/>
</linearGradient>
<linearGradient id="paint2_linear_660_31183" x1="13.6298" y1="14.6446" x2="-7.58953" y2="35.5011" gradientUnits="userSpaceOnUse">
<stop stop-color="#FF3A44"/>
<stop offset="1" stop-color="#C31162"/>
</linearGradient>
<linearGradient id="paint3_linear_660_31183" x1="-2.44354" y1="-5.9827" x2="7.02879" y2="3.33175" gradientUnits="userSpaceOnUse">
<stop stop-color="#32A071"/>
<stop offset="0.07" stop-color="#2DA771"/>
<stop offset="0.48" stop-color="#15CF74"/>
<stop offset="0.8" stop-color="#06E775"/>
<stop offset="1" stop-color="#00F076"/>
</linearGradient>
</defs>
</svg>
