<svg width="111" height="81" viewBox="0 0 111 81" fill="none" xmlns="http://www.w3.org/2000/svg">
<circle cx="79.2656" cy="41.3008" r="31" fill="#B9D2FF"/>
<path d="M18.9843 40.7448L13.1545 47.4536C11.2397 49.6571 11.4738 52.9956 13.6773 54.9104L13.9433 55.1415C16.1468 57.0563 19.4853 56.8223 21.4001 54.6188L27.2299 47.9101C29.1447 45.7066 28.9106 42.368 26.7071 40.4532L26.4411 40.2221C24.2376 38.3073 20.8991 38.5413 18.9843 40.7448Z" fill="white" stroke="#246BEB" stroke-width="2.5" stroke-miterlimit="10"/>
<path d="M79.0415 47.5048L58.4077 25.2917C59.8955 24.4956 59.8302 24.6131 59.504 24.2998L42.7463 7.93372C32.6186 -1.01936 17.5315 -0.941052 8.43487 8.36441C-0.974995 17.9961 -0.413796 33.8141 9.73999 43.6938C14.4906 49.9323 28.2465 56.0402 28.2465 56.0402L34.0934 51.6811L55.3798 73.1633C56.4516 74.2336 57.9044 74.8348 59.4191 74.8348C60.9339 74.8348 62.3866 74.2336 63.4585 73.1633C64.5535 72.0696 65.1828 70.5945 65.2144 69.0472C65.246 67.4998 64.6776 66.0003 63.6281 64.8628L43.2553 44.8815L63.6281 64.8628C64.1568 65.3939 64.7853 65.8154 65.4773 66.103C66.1694 66.3905 66.9115 66.5386 67.6609 66.5386C68.4104 66.5386 69.1524 66.3905 69.8445 66.103C70.5366 65.8154 71.165 65.3939 71.6937 64.8628C72.7568 63.638 73.3256 62.0612 73.2895 60.4398C73.2533 58.8184 72.6146 57.2686 71.4979 56.0924L52.0909 37.1422L70.9629 55.5182C72.0324 56.5895 73.4837 57.192 74.9976 57.1932C76.5114 57.1944 77.9637 56.5942 79.035 55.5247C80.1063 54.4551 80.7088 53.0038 80.71 51.49C80.7113 49.9762 80.1111 48.5238 79.0415 47.4526V47.5048Z" fill="white" stroke="#246BEB" stroke-width="2.5" stroke-linecap="round" stroke-linejoin="round"/>
<path d="M76.2483 8.41714C67.1125 -0.888318 52.0645 -0.966624 41.9368 7.98645L25.3227 24.196C24.2519 25.2147 23.5935 26.592 23.4731 28.0652C23.3528 29.5383 23.7789 31.0042 24.6702 32.1833C25.1796 32.8181 25.8163 33.3394 26.5392 33.7135C27.2622 34.0876 28.0554 34.3062 28.8679 34.3554C29.6805 34.4046 30.4943 34.2832 31.2571 33.999C32.0198 33.7148 32.7147 33.2741 33.297 32.7053L46.2568 19.3148C46.7807 18.8046 47.4831 18.5191 48.2144 18.5191C48.9457 18.5191 49.6482 18.8046 50.1721 19.3148L75.6349 43.9293C80.4044 39.2898 83.1456 32.9524 83.2605 26.2996C83.3754 19.6468 80.8547 13.2186 76.2483 8.41714Z" fill="white" stroke="#246BEB" stroke-width="2.5" stroke-miterlimit="10"/>
<path d="M27.3125 47.8347L21.4827 54.5434C19.5679 56.7469 19.8019 60.0854 22.0054 62.0002L22.2714 62.2314C24.4749 64.1462 27.8134 63.9121 29.7282 61.7086L35.558 54.9999C37.4728 52.7964 37.2388 49.4579 35.0353 47.5431L34.7693 47.312C32.5658 45.3972 29.2273 45.6312 27.3125 47.8347Z" fill="white" stroke="#246BEB" stroke-width="2.5" stroke-miterlimit="10"/>
<path d="M34.9179 55.4578L29.0881 62.1665C27.1733 64.37 27.4074 67.7085 29.6109 69.6233L29.8769 69.8544C32.0804 71.7692 35.4189 71.5352 37.3337 69.3317L43.1635 62.6229C45.0783 60.4195 44.8443 57.0809 42.6408 55.1661L42.3748 54.935C40.1713 53.0202 36.8327 53.2543 34.9179 55.4578Z" fill="white" stroke="#246BEB" stroke-width="2.5" stroke-miterlimit="10"/>
<path d="M43.4726 62.8933L37.6428 69.602C35.728 71.8055 35.9621 75.144 38.1656 77.0588L38.4316 77.29C40.6351 79.2047 43.9736 78.9707 45.8884 76.7672L51.7182 70.0585C53.633 67.855 53.399 64.5165 51.1954 62.6017L50.9295 62.3706C48.726 60.4558 45.3874 60.6898 43.4726 62.8933Z" fill="white" stroke="#246BEB" stroke-width="2.5" stroke-miterlimit="10"/>
</svg>
