<svg width="234" height="84" viewBox="0 0 234 84" fill="none" xmlns="http://www.w3.org/2000/svg">
<path d="M0.5 32.4369V19.2554C26.205 18.678 48.9 15.6522 48.9 7.06158V0.154297H73.141V7.06158C73.141 15.6522 95.8633 18.678 121.568 19.2554V32.4369C85.2478 32.4369 62.3794 28.4033 61.0342 25.7129L58.3438 28.4033L56.1856 29.418C40.3316 31.3309 23.7765 32.4926 0.5 32.4369Z" fill="#246BEB"/>
<path d="M45.2287 82.4661H2.3637V75.2908H19.2767V68.302H28.3157V75.2908H45.2287V82.4661ZM3.34214 53.1594C3.34214 51.0162 3.83912 49.0282 4.83309 47.1956C5.85813 45.3319 7.31802 43.8409 9.21278 42.7227C11.1075 41.6045 13.3129 41.0454 15.8289 41.0454H31.7169C34.2329 41.0454 36.4383 41.6045 38.333 42.7227C40.2278 43.8409 41.6877 45.3319 42.7127 47.1956C43.7378 49.0282 44.2503 51.0162 44.2503 53.1594V54.3242C44.2503 56.4675 43.7378 58.471 42.7127 60.3347C41.6877 62.1673 40.2278 63.6427 38.333 64.7609C36.4383 65.8792 34.2329 66.4383 31.7169 66.4383H15.8289C13.3129 66.4383 11.1075 65.8792 9.21278 64.7609C7.31802 63.6427 5.85813 62.1673 4.83309 60.3347C3.83912 58.471 3.34214 56.4675 3.34214 54.3242V53.1594ZM35.025 53.5322C35.025 51.9791 34.5125 50.7366 33.4874 49.8048C32.4624 48.8419 31.0802 48.3604 29.3407 48.3604H18.2051C16.4657 48.3604 15.0834 48.8419 14.0584 49.8048C13.0644 50.7366 12.5674 51.9791 12.5674 53.5322V53.9515C12.5674 55.5046 13.0644 56.7626 14.0584 57.7255C15.0834 58.6573 16.4657 59.1233 18.2051 59.1233H29.3407C31.0802 59.1233 32.4624 58.6573 33.4874 57.7255C34.5125 56.7626 35.025 55.5046 35.025 53.9515V53.5322ZM91.8211 62.6643H48.9561V56.3743H91.8211V62.6643ZM50.3073 72.0759H80.6855V70.1657H50.3073V65.1803H90.2836V76.6886H59.9053V78.5989H91.0291V83.6309H50.3073V72.0759ZM90.0972 54.1845H50.6334V40.3931H59.6724V47.9877H90.0972V54.1845ZM96.3406 52.4605C96.3406 48.5778 97.5986 45.6425 100.115 43.6546C102.631 41.6666 105.908 40.6727 109.946 40.6727C113.984 40.6727 117.245 41.6666 119.73 43.6546C122.246 45.6425 123.504 48.5778 123.504 52.4605V56.9334C123.504 60.8161 122.246 63.7514 119.73 65.7394C117.245 67.7273 113.984 68.7213 109.946 68.7213C105.908 68.7213 102.631 67.7273 100.115 65.7394C97.5986 63.7514 96.3406 60.8161 96.3406 56.9334V52.4605ZM105.007 57.7255C105.007 59.1233 105.473 60.1638 106.405 60.8472C107.367 61.5305 108.548 61.8722 109.946 61.8722C111.343 61.8722 112.508 61.5305 113.44 60.8472C114.403 60.1638 114.884 59.1233 114.884 57.7255V51.6685C114.884 50.2707 114.403 49.2301 113.44 48.5468C112.477 47.8634 111.312 47.5217 109.946 47.5217C108.579 47.5217 107.414 47.8634 106.451 48.5468C105.488 49.2301 105.007 50.2707 105.007 51.6685V57.7255ZM128.629 40.1601H137.482V83.6309H128.629V40.1601ZM95.5485 81.7672V74.359H116.562C120.631 74.359 123.892 74.1726 126.346 73.7999V81.2081C123.892 81.5808 120.631 81.7672 116.562 81.7672H95.5485ZM185.006 82.4661H142.141V75.2908H159.054V65.7394H168.093V75.2908H185.006V82.4661ZM144.098 41.325H183.049V48.6866H168.186C168.155 50.0533 167.938 51.42 167.534 52.7867C170.329 52.7867 172.97 53.3458 175.455 54.464C177.939 55.5822 179.99 57.244 181.605 59.4494C183.22 61.6237 184.152 64.264 184.4 67.3701H175.641C175.237 65.7549 174.461 64.3105 173.311 63.037C172.193 61.7324 170.795 60.7385 169.118 60.0551C167.441 59.3718 165.624 59.0922 163.667 59.2164C161.399 61.6082 158.464 63.5185 154.861 64.9473C151.289 66.3761 147.406 67.1993 143.213 67.4167V60.1949C146.194 59.8843 148.866 59.1854 151.226 58.0982C153.587 57.0111 155.451 55.6444 156.818 53.9981C158.215 52.3518 158.945 50.5813 159.007 48.6866H144.098V41.325ZM220.649 40.1601H229.502V47.5683H233.695V55.2095H229.502V62.4313H220.649V40.1601ZM191.855 71.2839H220.929V69.094H191.855V63.8291H229.688V76.0363H200.987V78.2727H230.434V83.6309H191.855V71.2839ZM189.805 41.0454H214.918V47.6149H198.331V55.0231H216.829V61.4995H189.805V41.0454Z" fill="#246BEB"/>
</svg>
